<svg xmlns="http://www.w3.org/2000/svg" width="50" height="50" viewBox="0 0 50 50">
  <defs>
    <style>
      .cls-1 {
        fill: #fba112;
      }

      .cls-2 {
        fill: #ff5353;
      }

      .cls-2, .cls-3, .cls-4 {
        fill-rule: evenodd;
      }

      .cls-3 {
        fill: #ffeaea;
      }

      .cls-4 {
        fill: #141414;
      }
    </style>
  </defs>
  <circle class="cls-1" cx="25" cy="25" r="25"/>
  <path id="Ellipse_2_copy_2" data-name="Ellipse 2 copy 2" class="cls-2" d="M37.1,46.774A26.841,26.841,0,0,1,25,50a27.542,27.542,0,0,1-12.1-3.226m0,0c1.491-4.954,6.763-8.518,12.223-8.518A12.742,12.742,0,0,1,37.1,46.774"/>
  <path id="Rounded_Rectangle_1_copy" data-name="Rounded Rectangle 1 copy" class="cls-3" d="M25.076,31.7h0a0.983,0.983,0,0,1,.983.983v9.778a0.983,0.983,0,0,1-.983.983h0a0.983,0.983,0,0,1-.983-0.983V32.687A0.983,0.983,0,0,1,25.076,31.7Z"/>
  <path id="Ellipse_2_copy_2-2" data-name="Ellipse 2 copy 2" class="cls-3" d="M25.123,34.56c-5.4,0-9.774-8.965-9.774-14.325a9.774,9.774,0,0,1,19.547,0C34.9,25.595,30.521,34.56,25.123,34.56Z"/>
  <path id="Shape_4_copy" data-name="Shape 4 copy" class="cls-4" d="M14.484,21.16a12.077,12.077,0,0,1-.659-6.042C14.817,10.244,17.016,8.5,17.016,8.5c0.288-.3-0.272-1.588-2.362-0.879,0,0,2.513-1.575,3.316-.439a12.541,12.541,0,0,1,5.962-2.153c3.331-.212,4.956.41,7.313,0.71a24.413,24.413,0,0,0,5.008,0,6.49,6.49,0,0,1-2.782,2.367,6.736,6.736,0,0,0,4.293.631,5.068,5.068,0,0,1-2.294,1.725,4.657,4.657,0,0,1-2.621.07s2.78,1.011,3.665,2.219c1.428,1.949.989,4.937,0.989,4.937a5.579,5.579,0,0,0-1.862-2.534,6.862,6.862,0,0,0-3.258-.924,8.139,8.139,0,0,1,2.792,1.848,5.754,5.754,0,0,1,1.418,5.545,15.572,15.572,0,0,0-11.322-5.008C16.973,16.614,14.484,21.16,14.484,21.16Z"/>
</svg>
