<svg xmlns="http://www.w3.org/2000/svg" width="50" height="50" viewBox="0 0 50 50">
  <defs>
    <style>
      .cls-1 {
        fill: #fba112;
      }

      .cls-2 {
        fill: #13b666;
      }

      .cls-2, .cls-3, .cls-4 {
        fill-rule: evenodd;
      }

      .cls-3 {
        fill: #ffeaea;
      }
    </style>
  </defs>
  <circle class="cls-1" cx="25" cy="25" r="25"/>
  <path id="Ellipse_2_copy_2" data-name="Ellipse 2 copy 2" class="cls-2" d="M37.1,46.774A26.841,26.841,0,0,1,25,50a27.542,27.542,0,0,1-12.1-3.226m0,0c1.491-4.954,6.763-8.518,12.223-8.518A12.742,12.742,0,0,1,37.1,46.774"/>
  <path id="Rounded_Rectangle_1_copy" data-name="Rounded Rectangle 1 copy" class="cls-3" d="M25.076,31.7h0a0.983,0.983,0,0,1,.983.983v9.778a0.983,0.983,0,0,1-.983.983h0a0.983,0.983,0,0,1-.983-0.983V32.687A0.983,0.983,0,0,1,25.076,31.7Z"/>
  <path id="Ellipse_2_copy_2-2" data-name="Ellipse 2 copy 2" class="cls-3" d="M25.123,34.56c-5.4,0-9.774-8.965-9.774-14.325a9.774,9.774,0,0,1,19.547,0C34.9,25.595,30.521,34.56,25.123,34.56Z"/>
  <path class="cls-4" d="M16.121,22.862a15.036,15.036,0,0,1,.131-6.095c0.8-2.662.666-2.539,0.666-2.539s8.414,1.262,12.755.393c5.451-1.092,7.13-2.176,7.573-4.479,0.547-2.838-2.262-4.568-7.972-4.548s-12.647.328-14.17,5.1A17.053,17.053,0,0,0,16.121,22.862Z"/>
</svg>
