<svg xmlns="http://www.w3.org/2000/svg" width="141" height="158" viewBox="0 0 141 158">
  <defs>
    <style>
      .cls-1 {
        fill: #aaa;
        opacity: 0.2;
      }

      .cls-2 {
        fill: #fba112;
      }

      .cls-3 {
        fill: #ff5353;
      }

      .cls-3, .cls-5, .cls-6 {
        fill-rule: evenodd;
      }

      .cls-4, .cls-5 {
        fill: #ffeaea;
      }

      .cls-6 {
        fill: #141414;
      }
    </style>
  </defs>
  <ellipse id="Ellipse_1_copy" data-name="Ellipse 1 copy" class="cls-1" cx="70.5" cy="88.203" rx="70.344" ry="69.672"/>
  <ellipse id="Ellipse_1_copy_2" data-name="Ellipse 1 copy 2" class="cls-2" cx="71" cy="88.5" rx="54" ry="53.5"/>
  <path id="Ellipse_2_copy" data-name="Ellipse 2 copy" class="cls-3" d="M71.886,99.91a36.1,36.1,0,0,1,34.91,27.578c0.348,1.4-13.6,15.17-34.91,15.17-18.568,0-35.425-11.347-35.183-12.913C39.224,113.387,54.483,99.91,71.886,99.91Z"/>
  <rect id="Rounded_Rectangle_1" data-name="Rounded Rectangle 1" class="cls-4" x="67.75" y="80.594" width="6.875" height="34.5" rx="2.5" ry="2.5"/>
  <path class="cls-5" d="M71.884,88.887c-16,0-28.972-26.767-28.972-42.768a28.971,28.971,0,1,1,57.943,0C100.855,62.12,87.884,88.887,71.884,88.887Z"/>
  <path class="cls-6" d="M42.276,48.878s-3.722-9.3-1.953-18.04c2.943-14.55,9.46-19.755,9.46-19.755,0.853-.894-0.808-4.743-7-2.625,0,0,7.449-4.7,9.828-1.312A37.025,37.025,0,0,1,70.283.718c9.873-.634,14.692,1.223,21.679,2.12a71.86,71.86,0,0,0,14.845,0S103.59,8.006,98.56,9.905c0,0,4.088,2.813,12.724,1.885a15.044,15.044,0,0,1-6.8,5.149,13.712,13.712,0,0,1-7.768.209s8.241,3.017,10.865,6.623c4.234,5.817,2.931,14.74,2.931,14.74a16.658,16.658,0,0,0-5.519-7.567c-3.625-2.621-9.657-2.759-9.657-2.759,0.008-.508,5.928,2.929,8.278,5.518,7.138,7.869,4.28,16.676,4.2,16.555A46.051,46.051,0,0,0,74.255,35.307C49.655,35.307,42.276,48.878,42.276,48.878Z"/>
</svg>
