<svg xmlns="http://www.w3.org/2000/svg" width="50" height="50" viewBox="0 0 50 50">
  <defs>
    <style>
      .cls-1 {
        fill: #fba112;
      }

      .cls-2, .cls-3, .cls-4 {
        fill-rule: evenodd;
      }

      .cls-3 {
        fill: #6dc8f8;
      }

      .cls-4 {
        fill: #ffeaea;
      }
    </style>
  </defs>
  <circle class="cls-1" cx="25" cy="25" r="25"/>
  <path class="cls-2" d="M13.2,46.482l1.619-27.413h20.4l0.324,27.413H13.2Z"/>
  <path id="Ellipse_2_copy_2" data-name="Ellipse 2 copy 2" class="cls-3" d="M37.1,46.774A26.841,26.841,0,0,1,25,50a27.542,27.542,0,0,1-12.1-3.226m0,0c1.491-4.954,6.763-8.518,12.223-8.518A12.742,12.742,0,0,1,37.1,46.774"/>
  <path id="Rounded_Rectangle_1_copy" data-name="Rounded Rectangle 1 copy" class="cls-4" d="M25.076,31.7h0a0.983,0.983,0,0,1,.983.983v9.778a0.983,0.983,0,0,1-.983.983h0a0.983,0.983,0,0,1-.983-0.983V32.687A0.983,0.983,0,0,1,25.076,31.7Z"/>
  <path id="Ellipse_2_copy_2-2" data-name="Ellipse 2 copy 2" class="cls-4" d="M25.123,34.56c-5.4,0-9.774-8.965-9.774-14.325a9.774,9.774,0,0,1,19.547,0C34.9,25.595,30.521,34.56,25.123,34.56Z"/>
  <path class="cls-2" d="M26.217,19.054V14.2l4.365,4.856h4.969s0.715-13.2-10.319-13.2c-10.336,0-11,13.2-11,13.2H26.217Z"/>
</svg>
