<?xml version="1.0" standalone="no"?>
<!DOCTYPE svg PUBLIC "-//W3C//DTD SVG 20010904//EN"
 "http://www.w3.org/TR/2001/REC-SVG-20010904/DTD/svg10.dtd">
<svg version="1.0" xmlns="http://www.w3.org/2000/svg"
 width="800.000000pt" height="332.000000pt" viewBox="0 0 800.000000 332.000000"
 preserveAspectRatio="xMidYMid meet">

<g transform="translate(0.000000,332.000000) scale(0.100000,-0.100000)"
fill="#000000" stroke="none">
<path d="M2760 2721 c-57 -18 -200 -111 -200 -130 0 -4 20 -12 45 -19 31 -8
65 -31 112 -73 84 -76 169 -119 237 -119 54 0 121 27 152 61 19 21 19 22 -22
58 -55 48 -136 87 -231 110 l-78 19 68 1 c109 2 226 -48 330 -139 20 -18 37
-28 37 -22 0 5 -24 43 -52 83 -57 78 -148 150 -215 168 -43 12 -146 13 -183 2z"/>
<path d="M3865 2673 c-174 -63 -307 -228 -359 -447 -5 -22 7 -10 52 50 71 96
163 181 241 223 61 32 158 61 201 60 21 0 20 -2 -13 -14 -81 -30 -180 -90
-242 -147 -67 -62 -130 -142 -121 -156 15 -25 106 -57 172 -60 61 -3 79 0 127
22 71 34 150 112 217 215 54 83 110 133 165 147 l27 7 -48 29 c-87 55 -170 80
-274 85 -74 3 -106 0 -145 -14z"/>
<path d="M3180 2115 c-217 -38 -387 -129 -545 -289 -189 -192 -285 -433 -285
-711 0 -56 3 -105 7 -109 7 -6 8 -13 14 -72 3 -28 29 -68 29 -44 0 6 44 10
120 10 73 0 120 4 120 10 0 6 35 9 89 7 49 -1 87 -5 85 -8 -2 -4 3 -10 12 -13
22 -9 23 -8 18 16 -2 13 5 5 16 -17 11 -22 17 -46 15 -53 -3 -7 -1 -11 4 -8 5
3 15 -8 22 -26 24 -58 105 -173 150 -212 24 -21 77 -54 116 -73 60 -29 88 -36
158 -41 150 -9 275 43 376 156 48 54 139 225 139 262 0 12 4 19 9 16 5 -4 11
0 14 6 3 10 7 10 18 2 13 -11 142 -18 354 -19 44 0 83 -4 86 -8 9 -13 22 81
13 95 -4 6 -3 8 3 5 13 -8 23 47 23 128 0 72 -30 236 -60 324 -108 321 -375
567 -707 652 -42 10 -77 18 -78 17 0 -2 -9 -64 -18 -138 -9 -74 -20 -146 -24
-160 -6 -23 -4 -22 35 13 36 31 49 37 87 37 41 0 50 -5 88 -44 134 -138 214
-412 187 -642 -13 -113 -13 -115 -43 -205 -46 -137 -114 -237 -218 -321 -152
-122 -352 -125 -507 -7 -29 22 -58 36 -64 33 -7 -4 -8 -2 -4 5 4 6 -9 30 -31
55 -55 63 -118 188 -144 286 -41 159 -37 366 11 505 59 171 176 332 281 385
46 24 63 25 83 4 22 -21 20 -73 -6 -217 -18 -96 -22 -158 -22 -287 1 -197 17
-269 94 -425 47 -95 101 -177 85 -130 -21 65 -46 194 -55 287 -15 161 2 321
69 638 11 52 22 115 25 140 2 25 7 52 10 61 9 21 -25 21 -41 0 -11 -14 -12
-14 -13 2 0 19 -17 22 -55 7 -20 -8 -24 -7 -19 3 5 7 0 6 -10 -3 -17 -14 -18
-13 -13 15 3 17 9 49 12 73 8 49 10 49 -115 27z m-330 -1156 c0 -6 -4 -7 -10
-4 -5 3 -10 11 -10 16 0 6 5 7 10 4 6 -3 10 -11 10 -16z m1473 -10 c-6 -6 -28
-9 -49 -6 l-39 4 43 1 c24 1 42 7 42 14 0 6 3 8 7 5 4 -4 2 -12 -4 -18z
m-1620 -6 c-13 -2 -33 -2 -45 0 -13 2 -3 4 22 4 25 0 35 -2 23 -4z m1400 0
c-35 -2 -91 -2 -125 0 -35 2 -7 3 62 3 69 0 97 -1 63 -3z m-1038 -313 c10 -11
16 -20 13 -20 -3 0 -13 9 -23 20 -10 11 -16 20 -13 20 3 0 13 -9 23 -20z"/>
<path d="M4286 833 c-6 -14 -5 -15 5 -6 7 7 10 15 7 18 -3 3 -9 -2 -12 -12z"/>
</g>
</svg>
