<?xml version="1.0" encoding="utf-8"?>
<!-- Generator: Adobe Illustrator 23.0.0, SVG Export Plug-In . SVG Version: 6.00 Build 0)  -->
<svg version="1.1" id="Layer_1" xmlns="http://www.w3.org/2000/svg" xmlns:xlink="http://www.w3.org/1999/xlink" x="0px" y="0px"
	 viewBox="0 0 128 128" style="enable-background:new 0 0 128 128;" xml:space="preserve">
<style type="text/css">
	.st0{fill:#6E81DC;}
	.st1{fill-rule:evenodd;clip-rule:evenodd;fill:#6E81DC;}
</style>
<g>
	<g id="Shape_2">
		<g>
			<path class="st0" d="M24.7,60.4c-18.5-8.5-15,9.1-15,9.1C51.2,108,118.6,38.7,118.6,38.7C44.1,82.8,24.7,60.4,24.7,60.4z"/>
		</g>
	</g>
	<g id="Shape_2_copy">
		<g>
			<path class="st1" d="M24.7,64.4c0,0,0.3,0.4,0.9,0.9c0-0.4,0-0.9,0-1.3c0-29.2,12.4-52.9,27.7-52.9c14.8,0,26.8,22,27.7,49.7
				c4.8-1.8,10.1-4,15.8-6.5C93.5,24.7,75.3,2,53.3,2C29,2,9.3,29.8,9.3,64c0,1.8,0.1,3.5,0.2,5.2C9.8,64.6,12.4,58.7,24.7,64.4z
				 M97.2,60.5c-4.9,3.5-10.4,7.2-16.4,10.7C79,97,67.4,116.9,53.3,116.9c-11.7,0-21.7-13.8-25.8-33.3c-6.3-1.6-12.3-4.8-17.7-10
				c3.3,29.7,21.5,52.4,43.5,52.4c24.3,0,44-27.8,44-62C97.3,62.8,97.3,61.7,97.2,60.5z"/>
		</g>
	</g>
</g>
</svg>
