<svg xmlns="http://www.w3.org/2000/svg" width="1920" height="1010" viewBox="0 0 1920 1010">
  <defs>
    <style>
      .cls-1 {
        fill: #eee5ff;
      }

      .cls-2 {
        fill: #f4eeff;
      }

      .cls-2, .cls-3, .cls-4, .cls-5 {
        fill-rule: evenodd;
      }

      .cls-3 {
        fill: #f6f1ff;
      }

      .cls-4 {
        fill: #f9f6ff;
      }

      .cls-5 {
        fill: none;
        stroke: #8b50ff;
        stroke-width: 2px;
      }
    </style>
  </defs>
  <rect class="cls-1" y="-70" width="1920" height="1080"/>
  <path class="cls-2" d="M1957,1067l-1316.55,1.99H-225.887l2.125-118.581s62.245-10.453,166.129,19.764,232.441,9.515,268.526-2.661c78.554-26.5,100.187-83.023,236.917-78.263,95.41,3.322,189.323,99.044,313.4,99.044,205.689,0,191.931-92.025,316.061-92.025s202.21,81.937,338.71,81.937c234,0,194.2-142.205,524.02-58.205Z"/>
  <path class="cls-3" d="M533.9,1001.67H64S126.427,920,224.26,920c52.828,0,118.974,46.022,182.457,46.022,78.132,0,120.382-63.014,204.96-63.014s124.094,53.286,182.328,53.286v48.7Z"/>
  <path class="cls-4" d="M1662.93,1032.61l-820.564,26.06H9.9L7.812,888.779s64.229-25.4,163.491,18.737,161.614,86.193,252.327,86.193c228.345,0,219.258-89.408,440.7-89.408S1109.38,1040.18,1281,932c97.09-61.2,251.39-36.117,300.84,2.7C1596.33,946.068,1786.5,1055,1979,901v167Z"/>
  <path class="cls-5" d="M1774,158.5s3.5-13.5,13.5-13.5c13.5,0,13.5,27,27,27,6.74,0,10.11-6.723,13.48-13.459"/>
  <path id="Shape_19_copy" data-name="Shape 19 copy" class="cls-5" d="M1828,158.5s3.5-13.5,13.5-13.5c13.5,0,13.5,27,27,27,6.74,0,10.11-6.723,13.48-13.459"/>
  <path id="Shape_19_copy_2" data-name="Shape 19 copy 2" class="cls-5" d="M1882,158.5s3.5-13.5,13.5-13.5c13.5,0,13.5,27,27,27,6.74,0,10.11-6.723,13.48-13.459"/>
  <path id="Shape_19_copy_3" data-name="Shape 19 copy 3" class="cls-5" d="M1774,186.5s3.5-13.5,13.5-13.5c13.5,0,13.5,27,27,27,6.74,0,10.11-6.723,13.48-13.459"/>
  <path id="Shape_19_copy_3-2" data-name="Shape 19 copy 3" class="cls-5" d="M1828,186.5s3.5-13.5,13.5-13.5c13.5,0,13.5,27,27,27,6.74,0,10.11-6.723,13.48-13.459"/>
  <path id="Shape_19_copy_3-3" data-name="Shape 19 copy 3" class="cls-5" d="M1882,186.5s3.5-13.5,13.5-13.5c13.5,0,13.5,27,27,27,6.74,0,10.11-6.723,13.48-13.459"/>
  <path id="Shape_19_copy_4" data-name="Shape 19 copy 4" class="cls-5" d="M1774,214.5s3.5-13.5,13.5-13.5c13.5,0,13.5,27,27,27,6.74,0,10.11-6.723,13.48-13.459"/>
  <path id="Shape_19_copy_4-2" data-name="Shape 19 copy 4" class="cls-5" d="M1828,214.5s3.5-13.5,13.5-13.5c13.5,0,13.5,27,27,27,6.74,0,10.11-6.723,13.48-13.459"/>
  <path id="Shape_19_copy_4-3" data-name="Shape 19 copy 4" class="cls-5" d="M1882,214.5s3.5-13.5,13.5-13.5c13.5,0,13.5,27,27,27,6.74,0,10.11-6.723,13.48-13.459"/>
  <path id="Shape_19_copy_5" data-name="Shape 19 copy 5" class="cls-5" d="M-19,626.5S-15.5,613-5.5,613C8,613,8,640,21.5,640c6.736,0,10.111-6.723,13.479-13.459"/>
  <path id="Shape_19_copy_5-2" data-name="Shape 19 copy 5" class="cls-5" d="M35,626.5S38.5,613,48.5,613c13.5,0,13.5,27,27,27,6.736,0,10.111-6.723,13.479-13.459"/>
  <path id="Shape_19_copy_5-3" data-name="Shape 19 copy 5" class="cls-5" d="M89,626.5S92.5,613,102.5,613c13.5,0,13.5,27,27,27,6.736,0,10.111-6.723,13.479-13.459"/>
  <path id="Shape_19_copy_5-4" data-name="Shape 19 copy 5" class="cls-5" d="M-19,654.5S-15.5,641-5.5,641C8,641,8,668,21.5,668c6.736,0,10.111-6.723,13.479-13.459"/>
  <path id="Shape_19_copy_5-5" data-name="Shape 19 copy 5" class="cls-5" d="M35,654.5S38.5,641,48.5,641c13.5,0,13.5,27,27,27,6.736,0,10.111-6.723,13.479-13.459"/>
  <path id="Shape_19_copy_5-6" data-name="Shape 19 copy 5" class="cls-5" d="M89,654.5S92.5,641,102.5,641c13.5,0,13.5,27,27,27,6.736,0,10.111-6.723,13.479-13.459"/>
  <path id="Shape_19_copy_5-7" data-name="Shape 19 copy 5" class="cls-5" d="M-19,682.5S-15.5,669-5.5,669C8,669,8,696,21.5,696c6.736,0,10.111-6.723,13.479-13.459"/>
  <path id="Shape_19_copy_5-8" data-name="Shape 19 copy 5" class="cls-5" d="M35,682.5S38.5,669,48.5,669c13.5,0,13.5,27,27,27,6.736,0,10.111-6.723,13.479-13.459"/>
  <path id="Shape_19_copy_5-9" data-name="Shape 19 copy 5" class="cls-5" d="M89,682.5S92.5,669,102.5,669c13.5,0,13.5,27,27,27,6.736,0,10.111-6.723,13.479-13.459"/>
</svg>
