<svg xmlns="http://www.w3.org/2000/svg" width="227" height="203" viewBox="0 0 227 203">
  <defs>
    <style>
      .cls-1 {
        fill: #7949d6;
      }

      .cls-1, .cls-10, .cls-11, .cls-2, .cls-3, .cls-4, .cls-5, .cls-6, .cls-7, .cls-8, .cls-9 {
        fill-rule: evenodd;
      }

      .cls-2 {
        fill: #fff;
      }

      .cls-3 {
        fill: #f44455;
      }

      .cls-4 {
        fill: #da3048;
      }

      .cls-5 {
        fill: #5fc27e;
      }

      .cls-6 {
        fill: none;
        stroke: #24a365;
        stroke-width: 1px;
      }

      .cls-7 {
        fill: #fcc100;
      }

      .cls-8 {
        fill: #7c50d3;
      }

      .cls-9 {
        fill: #dcdde1;
      }

      .cls-10 {
        fill: #8b50ff;
      }

      .cls-11 {
        fill: #72d0fb;
      }
    </style>
  </defs>
  <path class="cls-1" d="M11.948,91.424s-24.807-46.969-1.419-72.247c24.724-26.721,58.887-24.082,89.395,0s61.252,34,79.461,36.832,27.67,36.832,19.866,49.582-19.629,29.749-68.11,41.081S96.376,184.448,75.8,196.253s-56.7,7.722-64.853-17.416C-0.466,143.657,34.651,135.811,11.948,91.424Z"/>
  <path class="cls-2" d="M77.908,3.487c32.6-7,62.744-3.5,85.906,17.233s24.8,42.008,22.889,63.83,9.537,37.1,27.794,44.19,14.987,38.734,0,58.92-43.871,16.366-62.128,11.456-34.061-8.183-60.493-6.546-65.67-6.547-73.573-39.28,6.812-35.461,9.81-57.283C28.073,96.294,14.7,17.062,77.908,3.487Z"/>
  <path class="cls-3" d="M94.42,171.658c5.309-.621,13.336-9.987,16.451-14.689a51.537,51.537,0,0,0,4.936-9.794l-6.581,37.541s41.305,3.614,52.646,3.264,24.4-6.257,26.322-52.23c0,0,1.821-16.244,0-22.851s-3.663-13.252-27.967-13.057-35.745.894-42.775,3.264S102.821,121.954,101,127.589s-11.516,27.747-11.516,27.747"/>
  <path class="cls-4" d="M113.512,125.888a40.437,40.437,0,0,0,9.361-14.772l9.7,8.014s-6.777,20.258-16.723,34.341c-8.525,12.068-15.439,17.274-15.439,17.274s-5.889,2.493-8.63.527C80.6,163.255,81.487,158.541,113.512,125.888Z"/>
  <path class="cls-5" d="M55,202s2.8-24.569,14.043-27.368,14.56-15.676,3.145-15.815-14.214,14.246-14.214,14.246-1.147-15.975,12.943-19.937,9.276-27.265-5.712-17.7-13.559,34.484-13.559,34.484,7.283-19.147-6.679-33.829-24.943,7.031-12.628,18.988S45.961,177.5,45.961,177.5s-4.615-6.59-15.185-5.043-5.325,17.761,10.135,13.9S48,202,48,202h7Z"/>
  <path class="cls-6" d="M54,185a27.813,27.813,0,0,1,15-17"/>
  <path class="cls-6" d="M54,183s-1.823-22.516,11-37"/>
  <path class="cls-6" d="M38,143s9.377,18.084,11,30,2,12,2,12"/>
  <path class="cls-6" d="M36,179s10.777,0.684,15,6"/>
  <path class="cls-7" d="M138.839,57.405s-5.857,8.715-6.58,17.954,8.225,16.322,8.225,16.322v8.161h18.1V90.049s9.567-16.875,9.146-23.57c-0.4-6.353-10.791-2.545-10.791-2.545Z"/>
  <path class="cls-8" d="M156.775,89.417s0.723,3.1,4.935,3.264,2.708-.038,4.452-5.9,4.117-8.729,6.581-13.057,4.733-15.564-6.581-22.851-17.476-2.1-21.387-1.632a18.312,18.312,0,0,1-9.871-1.632c-1.958-1.064-4.109.044-3.291,3.264a11.709,11.709,0,0,0,8.226,8.161c4.726,1.384,13.855,7.062,13.645,10.793s3.089,4.328,4.936,0,5.276-3.935,5.581,0-0.025,6.47-2.291,8.161-4.417,2.7-4.935,4.9S156.775,89.417,156.775,89.417Z"/>
  <path class="cls-9" d="M99,88L92,31,16,41l7,57Z"/>
  <path class="cls-7" d="M120.686,115.682a51.813,51.813,0,0,1,6.831-13.765c4.4-5.845,7.965-5.506,10.987-5.668s0.712,3.284-3.486,4.45c0,0,4.859,2.138,4.24,7.414a17.7,17.7,0,0,1-6.579,11.716Z"/>
  <path id="_" data-name="?" class="cls-10" d="M55.821,70.73a1.242,1.242,0,0,0,.852-0.3,1.31,1.31,0,0,0,.416-0.812,6.886,6.886,0,0,1,1.09-3.052A24.8,24.8,0,0,1,60.7,63.478q1.268-1.387,2-2.318a8.886,8.886,0,0,0,1.229-2.14,7,7,0,0,0,.5-2.675,5.638,5.638,0,0,0-1.011-3.309A6.559,6.559,0,0,0,60.6,50.8,10.105,10.105,0,0,0,56.5,50a12.889,12.889,0,0,0-4.538.852,12.552,12.552,0,0,0-3.943,2.319,1.989,1.989,0,0,0-.753,1.585,1.937,1.937,0,0,0,.377,1.209,1.166,1.166,0,0,0,.971.5,2.735,2.735,0,0,0,1.308-.476,18.5,18.5,0,0,1,3.23-1.962,7.464,7.464,0,0,1,3.111-.654,4.684,4.684,0,0,1,2.973.872,2.863,2.863,0,0,1,1.11,2.378,5.1,5.1,0,0,1-.614,2.477,16.628,16.628,0,0,1-1.883,2.636A20.767,20.767,0,0,0,55.425,65.3a8.618,8.618,0,0,0-.832,3.963,1.6,1.6,0,0,0,.337,1.07,1.111,1.111,0,0,0,.892.4h0Zm0.04,7.728a2.42,2.42,0,0,0,1.783-.713,2.469,2.469,0,0,0,.713-1.823,2.538,2.538,0,0,0-.713-1.843,2.387,2.387,0,0,0-1.783-.733,2.434,2.434,0,0,0-1.823.733,2.537,2.537,0,0,0-.713,1.843,2.442,2.442,0,0,0,2.536,2.537h0Z"/>
  <path id="Shape_4_copy" data-name="Shape 4 copy" class="cls-11" d="M222.661,172.86a65,65,0,0,1-8.164,14.8c-14.987,20.185-43.871,16.366-62.128,11.456a203.338,203.338,0,0,0-66.493-6.546c-2.805.173-8.8,0.171-8.8,0.171L90,173"/>
</svg>
