<svg xmlns="http://www.w3.org/2000/svg" width="226.542" height="203.005" viewBox="0 0 231 207">
  <defs>
    <style>
      .cls-1 {
        fill: #7949d6;
      }

      .cls-1, .cls-10, .cls-11, .cls-2, .cls-3, .cls-4, .cls-5, .cls-6, .cls-7, .cls-8, .cls-9 {
        fill-rule: evenodd;
      }

      .cls-2 {
        fill: #fff;
      }

      .cls-3 {
        fill: #b0c6ea;
      }

      .cls-4 {
        fill: #dcdde1;
      }

      .cls-5 {
        fill: #f44455;
      }

      .cls-6 {
        fill: #2d3646;
      }

      .cls-7 {
        fill: #5fc27e;
      }

      .cls-8 {
        fill: none;
        stroke: #24a365;
        stroke-width: 1px;
      }

      .cls-9 {
        fill: #fcc100;
      }

      .cls-10 {
        fill: #7c50d3;
      }

      .cls-11 {
        fill: #cbd3e0;
      }
    </style>
  </defs>
  <path class="cls-1" d="M12.159,93.225S-13.086,45.33,10.715,19.554C35.874-7.694,70.639-5,101.684,19.554s62.331,34.669,80.862,37.558S210.7,94.67,202.762,107.67s-19.975,30.335-69.311,41.892-35.377,38.52-56.314,50.558-57.7,7.874-66-17.759C-0.474,146.488,35.262,138.487,12.159,93.225Z"/>
  <path class="cls-2" d="M79.281,3.556C112.457-3.585,143.13-.011,166.7,21.128s25.234,42.835,23.293,65.088,9.705,37.829,28.284,45.061,15.251,39.5,0,60.081-44.644,16.689-63.223,11.682-34.662-8.345-61.559-6.676-66.828-6.675-74.869-40.054,6.932-36.159,9.983-58.412C28.568,98.191,14.962,17.4,79.281,3.556Z"/>
  <path class="cls-3" d="M110,190v6s14.42,0.764,22,2,16.253,3.264,19,4-10.913-6.4-19-13Z"/>
  <path class="cls-4" d="M231,156s-0.33,32.764-25,46-56.58-.486-60-3-56-40-56-40l20-38Z"/>
  <path class="cls-5" d="M51.89,138.525s-1.85-16.582,0-23.326,3.723-13.528,28.422-13.33,36.325,0.912,43.469,3.332,14.869,19.241,16.719,24.993,11.7,28.326,11.7,28.326,12.64,0.912,18.391,3.332,12.082,5.911,16.719,6.665,5.015,1.666,5.015,1.666v8.331s-39.746-2.7-45.141-3.332-13.553-10.2-16.719-15a52.725,52.725,0,0,1-5.016-10l6.688,38.322s-41.976,3.689-53.5,3.332S53.841,185.456,51.89,138.525Z"/>
  <path class="cls-6" d="M36.843,175.381s-0.666-11.6-.209-18.347,8.112-17.119,21.944-16.643,8.091-.426,17.744.328,34.743,6.972,35.757,33-0.328,21.99-.328,21.99S36.007,220.369,36.843,175.381Z"/>
  <path class="cls-7" d="M58.692,193.564s0.124-12.637,11.567-15.491,14.816-15.985,3.2-16.127-14.465,14.527-14.465,14.527-1.167-16.289,13.171-20.33,9.44-27.8-5.813-18.051-13.8,35.164-13.8,35.164,7.411-19.524-6.8-34.5-25.383,7.17-12.85,19.362S46.771,181,46.771,181s-4.7-6.719-15.452-5.142S25.9,193.97,41.632,190.036s7.737,12.245,7.737,12.245Z"/>
  <path class="cls-8" d="M54.952,188.645A28.353,28.353,0,0,1,70.216,171.31"/>
  <path class="cls-8" d="M54.952,186.606s-1.855-22.96,11.194-37.729"/>
  <path class="cls-8" d="M38.67,145.818s9.542,18.44,11.194,30.591S51.9,188.645,51.9,188.645"/>
  <path class="cls-8" d="M36.634,182.527s10.967,0.7,15.264,6.118"/>
  <path class="cls-9" d="M102.048,58.548s5.952,8.9,6.687,18.328-8.359,16.662-8.359,16.662v8.331H81.985v-10l1.672-26.659Z"/>
  <path class="cls-9" d="M191.313,170.291a17.032,17.032,0,0,1,8.141-2.04c4.552,0.083,6.1,2.04,6.1,2.04s-1.7,2.16-5.088,1.019c0,0,.74,2.16,6.106,2.04s4.4,7.666-7.123,6.118-8.141-2.039-8.141-2.039v-7.138Z"/>
  <path class="cls-10" d="M97.032,90.206s-0.735,3.169-5.016,3.332-14.946.982-16.719-5-4.184-8.911-6.688-13.33S63.8,59.322,75.3,51.883s17.76-2.142,21.735-1.666a18.538,18.538,0,0,0,10.031-1.666c1.989-1.086,4.176.044,3.344,3.332a11.928,11.928,0,0,1-8.359,8.331c-4.8,1.413-1.885,6.189-1.672,10s-3.139,4.418-5.016,0-6.378-4.017-6.688,0,1.041,6.605,3.344,8.331,4.489,2.752,5.016,5S97.032,90.206,97.032,90.206Z"/>
  <path class="cls-4" d="M136.361,100.951l7.123-58.123,76.322,10.2-7.123,61.182Z"/>
  <path id="Shape_13_copy" data-name="Shape 13 copy" class="cls-11" d="M148.573,69.631L150.4,53.025l19.546,2.913L168.118,72.4Z"/>
  <path id="Shape_13_copy_2" data-name="Shape 13 copy 2" class="cls-11" d="M146.537,91.045l1.825-16.607,19.545,2.913-1.824,16.461Z"/>
  <path id="Shape_13_copy_3" data-name="Shape 13 copy 3" class="cls-11" d="M171.978,63.513l0.807-5.39,19.545,2.913,0.211,5.244Z"/>
  <path id="Shape_13_copy_4" data-name="Shape 13 copy 4" class="cls-11" d="M171.978,67.956l0.439-2.7,10.634,1.457,0.114,2.622Z"/>
  <path id="Shape_13_copy_5" data-name="Shape 13 copy 5" class="cls-11" d="M169.943,85.947l0.806-5.39L190.3,83.47l0.211,5.244Z"/>
  <path id="Shape_13_copy_5-2" data-name="Shape 13 copy 5" class="cls-11" d="M169.943,90.39l0.439-2.695,10.633,1.457,0.115,2.622Z"/>
</svg>
